<?xml version="1.0" standalone="no"?>
<!DOCTYPE svg PUBLIC "-//W3C//DTD SVG 20010904//EN"
 "http://www.w3.org/TR/2001/REC-SVG-20010904/DTD/svg10.dtd">
<svg version="1.0" xmlns="http://www.w3.org/2000/svg"
 width="240.000000pt" height="240.000000pt" viewBox="0 0 240.000000 240.000000"
 preserveAspectRatio="xMidYMid meet">
<metadata>
Created by potrace 1.14, written by Peter Selinger 2001-2017
</metadata>
<g transform="translate(0.000000,240.000000) scale(0.100000,-0.100000)"
fill="#000000" stroke="none">
<path d="M1049 2396 c-4 -4 -16 -8 -27 -11 -245 -47 -462 -160 -639 -333 -163
-159 -296 -407 -329 -612 -3 -19 -9 -54 -14 -78 -8 -47 -5 -298 5 -347 58
-292 222 -571 425 -724 19 -14 41 -32 48 -38 7 -7 17 -13 22 -13 5 0 15 -6 22
-13 63 -61 299 -161 433 -182 22 -4 54 -9 70 -11 67 -11 284 -5 366 10 153 29
329 103 463 196 233 162 400 402 477 689 27 101 28 116 28 313 -1 115 -5 206
-9 203 -4 -2 -17 33 -29 78 -44 167 -142 348 -256 475 -25 27 -41 53 -37 57 4
5 2 5 -5 2 -6 -4 -13 -4 -15 1 -7 18 -151 133 -205 164 -74 44 -268 125 -333
141 -36 8 -49 16 -45 26 4 10 2 11 -7 4 -7 -6 -22 -8 -33 -6 -32 8 -369 15
-376 9z m318 -140 c10 -3 36 -8 58 -11 63 -10 214 -64 284 -102 208 -112 386
-307 474 -516 62 -150 82 -251 82 -422 -1 -129 -5 -165 -28 -253 -48 -188
-143 -356 -274 -485 -136 -134 -293 -225 -470 -273 -84 -23 -119 -27 -248 -28
-158 -1 -192 3 -310 31 -16 4 -32 7 -35 8 -67 13 -257 111 -300 155 -3 3 -21
17 -40 32 -111 84 -221 219 -280 342 -37 79 -74 178 -84 227 -14 70 -26 140
-31 186 -6 53 8 217 25 283 5 19 12 50 15 68 7 40 37 112 89 212 152 294 453
503 791 548 64 9 253 7 282 -2z"/>
<path d="M1507 1874 c-85 -30 -226 -164 -289 -273 -12 -22 -26 -41 -29 -41 -3
0 -21 21 -40 46 -55 75 -196 192 -277 231 -65 32 -78 35 -141 31 -60 -3 -76
-8 -118 -38 -76 -54 -106 -95 -148 -205 -14 -38 -14 -179 1 -240 8 -33 16 -89
19 -125 3 -36 9 -87 15 -115 5 -27 12 -61 14 -75 33 -189 108 -370 187 -448
63 -63 111 -94 64 -41 -16 19 -32 36 -36 39 -22 21 -110 209 -123 265 -2 6 -8
28 -14 51 -19 67 -44 194 -38 194 2 0 20 -26 41 -57 21 -32 63 -86 93 -120 30
-35 51 -63 48 -63 -4 0 -30 12 -59 26 -50 25 -51 26 -32 4 34 -38 131 -106
220 -154 46 -26 84 -50 83 -54 -2 -6 6 -63 16 -120 2 -10 7 -43 11 -76 l7 -59
-25 5 c-14 3 -31 2 -38 -3 -43 -26 260 -43 486 -27 119 9 244 39 287 69 76 54
204 283 253 454 34 117 66 314 51 317 -6 0 -15 2 -21 3 -5 2 -21 3 -34 4 -17
1 -21 4 -13 14 5 6 20 46 32 87 18 60 21 90 17 155 -3 44 -8 91 -11 104 -12
53 -66 116 -143 166 -75 49 -114 63 -196 71 -39 3 -74 8 -77 9 -3 1 -22 -4
-43 -11z m210 -196 c18 -13 36 -32 40 -43 11 -30 4 -100 -13 -153 -15 -44
-112 -213 -138 -239 -6 -7 -48 -16 -93 -19 l-81 -6 -17 28 c-10 16 -43 66 -73
112 l-55 82 23 28 c73 83 183 182 230 205 69 34 131 36 177 5z m-900 -78 c74
-34 160 -92 228 -153 l50 -45 -35 -73 c-51 -110 -50 -109 -134 -104 -131 9
-134 11 -191 125 -41 84 -63 149 -73 229 l-9 63 51 -6 c28 -4 79 -20 113 -36z
m453 -381 c0 -4 -28 -6 -62 -5 -35 1 -63 5 -63 9 0 3 11 25 25 47 l25 41 37
-43 c21 -24 38 -46 38 -49z m595 -81 c-2 -7 -6 -29 -9 -48 -3 -19 -13 -62 -23
-95 -17 -55 -23 -63 -72 -92 -29 -17 -66 -36 -82 -42 -36 -12 -37 -14 46 94
34 45 77 106 96 138 31 52 55 76 44 45z m-690 -84 c105 -2 210 1 234 7 24 5
48 8 53 7 9 -3 -106 -122 -187 -193 -49 -43 -66 -41 -149 23 -116 88 -214 191
-158 166 9 -4 103 -9 207 -10z m572 -332 c-59 -123 -105 -184 -151 -201 -69
-26 -66 -28 -59 36 3 32 7 67 8 78 1 11 3 34 4 51 1 25 6 33 26 38 14 4 26 6
27 6 2 0 39 13 83 29 44 16 83 30 87 30 4 1 -7 -30 -25 -67z m-242 -114 c-7
-104 -12 -116 -50 -119 -11 -1 -31 -3 -45 -5 -72 -7 -166 -14 -264 -19 -60 -3
-113 -8 -117 -11 -9 -5 -15 23 -30 139 -6 49 -9 91 -6 94 3 3 16 -5 29 -17 13
-12 68 -48 123 -80 97 -57 101 -59 125 -43 51 32 180 126 197 144 10 10 24 18
32 18 11 1 12 -18 6 -101z"/>
</g>
</svg>
